<svg width="46" height="46" xmlns="http://www.w3.org/2000/svg"><g fill="none" fill-rule="evenodd"><path d="M32.64 24.20454545c0-.63818181-.0572727-1.25181818-.1636364-1.84090909H24V25.845h4.8436364c-.2086364 1.125-.8427273 2.0781818-1.7959091 2.7163636v2.2581819h2.9086363C31.6581818 29.2527273 32.64 26.9454545 32.64 24.20454545z" fill="#4285F4"/><path d="M24 33c2.43 0 4.4672727-.8059091 5.9563636-2.1804545l-2.9086363-2.2581819c-.8059091.54-1.8368182.8590909-3.0477273.8590909-2.34409091 0-4.32818182-1.5831818-5.03590909-3.7104545h-3.00681818v2.3318182C17.43818182 30.9831818 20.48181818 33 24 33z" fill="#34A853"/><path d="M18.96409091 25.71c-.18-.54-.28227273-1.11681818-.28227273-1.71 0-.59318182.10227273-1.17.28227273-1.71v-2.33181818h-3.00681818C15.34772727 21.17318182 15 22.54772727 15 24c0 1.4522727.34772727 2.8268182.95727273 4.0418182L18.9640909 25.71z" fill="#FBBC05"/><path d="M24 18.57954545c1.3213636 0 2.5077273.45409091 3.4404545 1.3459091l2.5813637-2.58136364C28.4631818 15.89181818 26.4259091 15 24 15c-3.51818182 0-6.56181818 2.01681818-8.04272727 4.95818182L18.9640909 22.29C19.67181818 20.16272727 21.65590909 18.57954545 24 18.57954545z" fill="#EA4335"/><path d="M15 15h18v18H15V15z"/></g></svg>